<?xml version="1.0" standalone="no"?>
<!DOCTYPE svg PUBLIC "-//W3C//DTD SVG 20010904//EN"
 "http://www.w3.org/TR/2001/REC-SVG-20010904/DTD/svg10.dtd">
<svg version="1.0" xmlns="http://www.w3.org/2000/svg"
 width="225.000000pt" height="225.000000pt" viewBox="0 0 225.000000 225.000000"
 preserveAspectRatio="xMidYMid meet">
<metadata>
Created by potrace 1.11, written by Peter Selinger 2001-2013
</metadata>
<g transform="translate(0.000000,225.000000) scale(0.100000,-0.100000)"
fill="#000000" stroke="none">
<path d="M1081 1826 c-7 -8 -9 -25 -5 -40 3 -14 1 -56 -6 -93 l-13 -67 -20 50
c-10 27 -20 63 -21 79 -1 24 -6 31 -25 33 -28 4 -43 -15 -30 -39 5 -10 9 -48
9 -86 l0 -68 -35 49 c-19 27 -35 57 -35 67 0 22 -28 33 -46 18 -17 -14 -18
-31 -2 -47 7 -7 28 -67 48 -134 31 -108 38 -123 60 -129 32 -9 233 -11 282 -3
l36 6 32 117 c18 64 40 128 48 143 15 26 15 29 0 45 -14 13 -20 14 -32 3 -9
-7 -16 -19 -16 -27 0 -8 -15 -35 -32 -60 l-33 -45 -3 67 c-2 41 2 72 9 81 9
11 9 18 -1 29 -13 15 -49 21 -51 8 -1 -5 -2 -21 -4 -38 -2 -16 -12 -50 -22
-74 l-19 -44 -13 71 c-7 39 -10 80 -6 92 12 38 -29 66 -54 36z m-110 -329
c-10 -9 -11 -8 -5 6 3 10 9 15 12 12 3 -3 0 -11 -7 -18z m133 11 c4 3 4 -1 0
-11 -3 -9 -16 -17 -28 -16 -20 0 -20 1 -1 9 14 6 16 9 5 10 -8 2 -19 2 -23 1
-5 -1 -6 3 -2 9 4 7 12 7 24 0 10 -5 21 -6 25 -2z m41 -6 c-3 -3 -11 0 -18 7
-9 10 -8 11 6 5 10 -3 15 -9 12 -12z m-119 -20 c-10 -2 -22 0 -28 6 -6 6 0 7
19 4 21 -5 23 -7 9 -10z m232 -2 c7 0 10 5 6 12 -4 7 -3 8 5 4 6 -4 9 -12 6
-17 -10 -14 -31 -11 -46 9 -11 14 -11 15 1 5 8 -7 20 -13 28 -13z m-292 -8
c-10 -2 -22 0 -28 6 -6 6 0 7 19 4 21 -5 23 -7 9 -10z m181 12 c-3 -3 -12 -4
-19 -1 -8 3 -5 6 6 6 11 1 17 -2 13 -5z m60 0 c-3 -3 -12 -4 -19 -1 -8 3 -5 6
6 6 11 1 17 -2 13 -5z m-37 -53 c35 -7 20 -8 -65 -8 -79 0 -97 2 -65 7 62 10
78 10 130 1z"/>
<path d="M125 1396 c-43 -19 -85 -71 -85 -106 0 -33 31 -60 69 -60 23 0 23 1
8 18 -23 25 -22 85 1 105 26 24 63 21 103 -6 34 -23 34 -24 31 -93 -7 -182
-48 -246 -142 -223 -11 3 -15 -4 -15 -26 0 -26 4 -30 29 -33 84 -10 152 87
172 247 l7 55 72 -147 c75 -151 126 -225 179 -259 42 -26 128 -21 159 10 28
29 18 36 -31 22 -53 -16 -96 4 -147 71 l-38 50 6 102 c12 181 38 231 117 225
36 -2 45 0 48 15 8 42 -47 61 -97 33 -51 -28 -111 -166 -111 -255 0 -40 -17
-21 -44 49 -41 103 -93 177 -141 200 -47 23 -106 25 -150 6z"/>
<path d="M2062 1370 c-47 -29 -78 -103 -97 -235 -9 -60 -19 -121 -22 -134 -6
-23 -5 -24 51 -19 43 4 65 12 93 35 100 81 115 247 17 197 -16 -8 -41 -27 -56
-42 -34 -31 -34 -24 -9 82 22 90 39 111 77 94 29 -13 50 1 41 26 -9 22 -55 20
-95 -4z m30 -256 c-4 -64 -24 -94 -62 -94 -34 0 -34 1 -20 52 12 43 57 101 74
95 7 -3 10 -23 8 -53z"/>
<path d="M680 1197 c-57 -30 -90 -90 -90 -164 0 -49 2 -53 24 -53 15 0 38 16
65 45 l42 45 -3 -34 c-3 -48 17 -69 60 -62 49 8 84 33 80 58 -4 31 -28 35 -28
5 0 -24 -16 -37 -46 -37 -18 0 -18 54 1 140 8 36 14 68 15 73 0 16 -79 6 -120
-16z m40 -76 c-18 -33 -43 -69 -56 -82 l-24 -22 0 34 c0 50 18 107 38 118 9 6
30 11 45 11 l28 0 -31 -59z"/>
<path d="M910 1209 c-54 -22 -77 -68 -48 -97 20 -20 29 -13 26 20 -2 27 2 35
25 46 18 9 42 11 68 7 37 -6 39 -9 26 -23 -39 -43 -42 -145 -7 -177 16 -14 22
-15 45 -3 14 8 35 27 45 44 l20 29 0 -26 c0 -14 9 -34 20 -44 18 -17 21 -17
51 1 46 27 99 126 99 187 0 39 -3 47 -18 47 -21 0 -52 -30 -52 -49 0 -8 6 -11
16 -7 14 6 16 0 11 -40 -5 -49 -35 -99 -58 -99 -11 0 -14 20 -12 97 l2 97 -24
-15 c-17 -11 -27 -31 -35 -68 -12 -60 -45 -119 -63 -113 -21 7 -20 95 2 140
11 22 18 44 15 49 -7 11 -123 9 -154 -3z"/>
<path d="M1395 1196 c-53 -32 -76 -75 -83 -152 -5 -61 -4 -64 18 -64 14 0 41
18 70 48 l47 47 -1 -45 -1 -45 47 -3 c40 -3 52 1 73 22 15 15 22 31 19 40 -10
25 -34 19 -34 -8 0 -27 -35 -45 -52 -28 -11 11 5 142 23 189 8 22 6 23 -39 23
-32 0 -60 -8 -87 -24z m60 -52 c-25 -61 -78 -124 -92 -111 -8 9 14 117 28 133
6 8 27 14 45 14 l34 0 -15 -36z"/>
<path d="M1718 1200 c-54 -29 -81 -80 -82 -154 -1 -54 1 -61 19 -63 22 -3 46
15 86 63 l25 31 0 -46 -1 -46 47 -3 c40 -3 52 1 73 22 26 26 25 56 -2 56 -10
0 -14 -7 -10 -20 6 -23 -25 -45 -50 -36 -12 5 -14 17 -8 62 4 31 12 78 19 105
l13 49 -46 0 c-25 -1 -62 -10 -83 -20z m57 -57 c-17 -42 -64 -104 -83 -111
-15 -5 -15 29 0 82 16 56 25 66 64 66 l34 0 -15 -37z"/>
<path d="M1280 904 c-8 -8 -14 -35 -14 -60 -1 -41 1 -44 24 -43 14 0 19 3 13
6 -16 6 -17 45 -1 61 9 9 9 12 0 12 -7 0 -12 5 -12 10 0 6 7 10 15 10 8 0 15
5 15 10 0 15 -26 12 -40 -6z"/>
<path d="M815 855 c0 -52 1 -55 25 -54 14 0 19 3 13 6 -7 2 -13 14 -13 26 1
21 2 20 21 -5 16 -22 29 -28 58 -28 l37 0 -4 39 c-3 26 -8 38 -16 35 -8 -3
-11 -17 -8 -34 5 -36 -12 -39 -39 -7 -24 29 -24 43 3 61 l22 16 -23 0 c-14 0
-21 -3 -18 -7 8 -8 -11 -33 -25 -33 -6 0 -8 9 -5 20 4 14 0 20 -11 20 -14 0
-17 -10 -17 -55z"/>
<path d="M930 900 c0 -5 5 -10 10 -10 6 0 10 5 10 10 0 6 -4 10 -10 10 -5 0
-10 -4 -10 -10z"/>
<path d="M1360 895 c-11 -13 -8 -21 15 -45 31 -32 27 -52 -7 -31 -17 10 -19
10 -16 -1 3 -7 18 -13 34 -13 37 0 46 37 15 57 -12 7 -21 18 -21 25 0 16 12
17 28 1 9 -9 12 -8 12 5 0 22 -43 23 -60 2z"/>
<path d="M1530 900 c0 -5 5 -10 10 -10 6 0 10 5 10 10 0 6 -4 10 -10 10 -5 0
-10 -4 -10 -10z"/>
<path d="M983 871 c-4 -3 -8 -21 -8 -38 0 -24 4 -33 16 -33 12 0 14 7 11 30
-3 18 0 30 7 30 6 0 11 -13 11 -30 0 -20 5 -30 15 -30 19 0 21 53 3 67 -14 11
-43 13 -55 4z"/>
<path d="M1073 867 c-5 -6 -9 -32 -9 -57 1 -38 4 -45 22 -48 12 -2 29 5 39 14
17 17 16 19 -10 40 -18 14 -25 28 -22 40 4 15 5 15 6 -4 1 -28 25 -25 29 4 2
14 -4 20 -22 22 -13 1 -28 -4 -33 -11z m38 -82 c-1 -15 -24 -12 -29 3 -3 9 2
13 12 10 10 -1 17 -7 17 -13z"/>
<path d="M1186 858 c-21 -30 -4 -60 32 -56 30 3 42 39 22 64 -17 20 -36 17
-54 -8z m44 -18 c0 -10 -5 -22 -10 -25 -13 -8 -24 20 -16 41 8 20 26 9 26 -16z"/>
<path d="M1439 877 c0 -1 -1 -28 -2 -60 -2 -47 1 -57 15 -57 10 0 15 6 12 18
-3 11 3 21 18 27 17 7 23 18 23 40 0 27 -3 30 -32 32 -18 1 -33 1 -34 0z m46
-42 c0 -10 -6 -20 -12 -22 -8 -3 -13 5 -13 22 0 17 5 25 13 23 6 -3 12 -13 12
-23z"/>
<path d="M1535 872 c-17 -12 -12 -72 5 -72 12 0 15 9 12 40 -2 22 -5 40 -6 40
0 0 -5 -4 -11 -8z"/>
<path d="M1588 869 c-22 -12 -24 -57 -3 -65 8 -4 23 -3 33 1 15 6 14 8 -6 16
-27 10 -26 46 1 41 9 -2 17 2 17 8 0 13 -20 13 -42 -1z"/>
<path d="M1652 868 c-17 -17 -15 -57 3 -64 8 -4 23 -3 33 1 15 6 14 8 -8 18
l-25 10 23 5 c15 2 22 9 20 20 -4 21 -29 27 -46 10z m28 -8 c0 -5 -5 -10 -11
-10 -5 0 -7 5 -4 10 3 6 8 10 11 10 2 0 4 -4 4 -10z"/>
<path d="M1719 864 c-11 -14 -11 -18 4 -29 9 -7 17 -16 17 -20 0 -4 -7 -2 -15
5 -12 10 -15 10 -15 -4 0 -10 9 -16 24 -16 24 0 43 25 27 35 -5 3 -7 14 -4 25
7 25 -18 27 -38 4z m31 -4 c0 -5 -2 -10 -4 -10 -3 0 -8 5 -11 10 -3 6 -1 10 4
10 6 0 11 -4 11 -10z"/>
</g>
</svg>
